<!-- Exported by Character Map UWP -->
<svg height="100%" viewBox="128 0 832 961" width="100%" xmlns="http://www.w3.org/2000/svg" xmlns:xlink="http://www.w3.org/1999/xlink">
  <path d="M160,960C151.333,960 143.833,956.833 137.5,950.5C131.167,944.167 128,936.667 128,928L128,384C128,360.333 134.083,338.417 146.25,318.25C158.417,298.083 174.833,282.333 195.5,271L195.5,160C195.5,151.333 198.667,143.833 205,137.5C211.333,131.167 218.833,128 227.5,128L288,128L288,31.5C288,22.8334 291.167,15.3334 297.5,9C303.833,2.66675 311.333,-0.5 320,-0.5L448,-0.5C456.667,-0.5 464.167,2.66675 470.5,9C476.833,15.3334 480,22.8334 480,31.5L480,128L547.5,128C556.167,128 563.667,131.167 570,137.5C576.333,143.833 579.5,151.333 579.5,160L579.5,275C598.5,286.667 613.333,302.083 624,321.25C634.667,340.417 640,361.333 640,384L672,384C698.333,384 723.75,387.417 748.25,394.25C772.75,401.083 795.667,410.75 817,423.25C838.333,435.75 857.833,450.833 875.5,468.5C893.167,486.167 908.25,505.667 920.75,527C933.25,548.333 942.917,571.25 949.75,595.75C956.583,620.25 960,645.667 960,672L960,928C960,936.667 956.833,944.167 950.5,950.5C944.167,956.833 936.667,960 928,960ZM352,63.5L352,128L416,128L416,63.5ZM515.5,256L515.5,192L259.5,192L259.5,256ZM192,896L259.5,896L256,768.5C256,759.5 257.667,751.167 261,743.5C264.333,735.833 268.917,729.083 274.75,723.25C280.583,717.417 287.333,712.833 295,709.5C302.667,706.167 311,704.5 320,704.5L448,704.5C456.667,704.5 464.917,706.167 472.75,709.5C480.583,712.833 487.417,717.417 493.25,723.25C499.083,729.083 503.667,735.917 507,743.75C510.333,751.583 512,759.833 512,768.5L512,896L576,896L576,384C576,375.333 574.333,367.083 571,359.25C567.667,351.417 563.083,344.583 557.25,338.75C551.417,332.917 544.583,328.333 536.75,325C528.917,321.667 520.667,320 512,320L256,320C247,320 238.667,321.667 231,325C223.333,328.333 216.583,332.917 210.75,338.75C204.917,344.583 200.333,351.333 197,359C193.667,366.667 192,375 192,384ZM256,432C256,418.667 260.667,407.333 270,398C279.333,388.667 290.667,384 304,384C317.333,384 328.667,388.667 338,398C347.333,407.333 352,418.667 352,432C352,445.333 347.333,456.667 338,466C328.667,475.333 317.333,480 304,480C290.667,480 279.333,475.333 270,466C260.667,456.667 256,445.333 256,432ZM416,432C416,418.667 420.667,407.333 430,398C439.333,388.667 450.667,384 464,384C477.333,384 488.667,388.667 498,398C507.333,407.333 512,418.667 512,432C512,445.333 507.333,456.667 498,466C488.667,475.333 477.333,480 464,480C450.667,480 439.333,475.333 430,466C420.667,456.667 416,445.333 416,432ZM640,896L896,896L896,668C896,638.667 890,610.75 878,584.25C866,557.75 849.917,534.417 829.75,514.25C809.583,494.083 786.25,478 759.75,466C733.25,454 705.333,448 676,448L640,448ZM256,592C256,578.667 260.667,567.333 270,558C279.333,548.667 290.667,544 304,544C317.333,544 328.667,548.667 338,558C347.333,567.333 352,578.667 352,592C352,605.333 347.333,616.667 338,626C328.667,635.333 317.333,640 304,640C290.667,640 279.333,635.333 270,626C260.667,616.667 256,605.333 256,592ZM416,592C416,578.667 420.667,567.333 430,558C439.333,548.667 450.667,544 464,544C477.333,544 488.667,548.667 498,558C507.333,567.333 512,578.667 512,592C512,605.333 507.333,616.667 498,626C488.667,635.333 477.333,640 464,640C450.667,640 439.333,635.333 430,626C420.667,616.667 416,605.333 416,592ZM704,624C704,610.667 708.667,599.333 718,590C727.333,580.667 738.667,576 752,576C765.333,576 776.667,580.667 786,590C795.333,599.333 800,610.667 800,624C800,637.333 795.333,648.667 786,658C776.667,667.333 765.333,672 752,672C738.667,672 727.333,667.333 718,658C708.667,648.667 704,637.333 704,624ZM704,784C704,770.667 708.667,759.333 718,750C727.333,740.667 738.667,736 752,736C765.333,736 776.667,740.667 786,750C795.333,759.333 800,770.667 800,784C800,797.333 795.333,808.667 786,818C776.667,827.333 765.333,832 752,832C738.667,832 727.333,827.333 718,818C708.667,808.667 704,797.333 704,784ZM320,768.5L320,896L448,896L448,768.5Z" fill="#FFFFFF" fill-opacity="1">
  </path>
</svg>