<!-- Exported by Character Map UWP -->
<svg height="100%" viewBox="64 0 896 1024" width="100%" xmlns="http://www.w3.org/2000/svg" xmlns:xlink="http://www.w3.org/1999/xlink">
  <path d="M960,544C960,572 955.333,600.083 946,628.25C936.667,656.417 924.333,684 909,711C893.333,738 875.417,764.25 855.25,789.75C835.083,815.25 813.5,839.5 790.5,862.5C767.5,885.5 743.917,906.667 719.75,926C695.583,945.333 671.5,962.167 647.5,976.5C624.167,990.5 600.917,1001.92 577.75,1010.75C554.583,1019.58 532.667,1024 512,1024C510.333,1024 508.917,1023.92 507.75,1023.75C506.583,1023.58 505.167,1023.5 503.5,1023.5C493.5,1022.5 484.167,1019.75 475.5,1015.25C466.833,1010.75 459.25,1004.92 452.75,997.75C446.25,990.583 441.167,982.417 437.5,973.25C433.833,964.083 432,954.333 432,944C432,923.667 438.583,904 451.75,885C464.917,866 485.167,845.833 512.5,824.5C525.5,814.167 539.75,803.833 555.25,793.5C570.75,783.167 587.167,772.333 604.5,761C621.833,750 639.667,738.667 658,727C676.333,715.333 695,703.167 714,690.5C736.667,675.167 759.417,658.833 782.25,641.5C805.083,624.167 827.167,605.417 848.5,585.25C869.833,565.083 890,543.5 909,520.5C928,497.5 945,472.5 960,445.5ZM693,28C726.333,35.6667 758.5,43.9167 789.5,52.75C820.5,61.5834 847.833,69.5 871.5,76.5L881.5,80C905.167,89.6667 924,104.917 938,125.75C952,146.583 959.333,169.833 960,195.5C959.667,250.833 951.583,300.333 935.75,344C919.917,387.667 898.917,427.167 872.75,462.5C846.583,497.833 816.667,529.667 783,558C749.333,586.333 714.333,612.833 678,637.5C659.667,649.833 641.5,661.75 623.5,673.25C605.5,684.75 587.667,696 570,707C552.667,718.333 535.833,729.5 519.5,740.5C503.167,751.5 487.667,762.833 473,774.5C458.667,785.5 445.167,797.167 432.5,809.5C419.833,821.833 408.75,835 399.25,849C389.75,863 382.167,877.833 376.5,893.5C370.833,909.167 368,926 368,944C368,953.667 369,963.333 371,973C350,960 328.833,945.167 307.5,928.5C286.167,911.833 265.167,893.5 244.5,873.5L236.5,864.5C226.167,851.833 218.083,837.833 212.25,822.5C206.417,807.167 203.5,790.833 203.5,773.5C203.5,748.167 209.75,724.75 222.25,703.25C234.75,681.75 252.667,660.5 276,639.5C300,618.167 327.25,597.833 357.75,578.5C388.25,559.167 420.5,539 454.5,518C471.167,507.667 487.917,497.083 504.75,486.25C521.583,475.417 538.083,464.167 554.25,452.5C570.417,440.833 586.083,428.667 601.25,416C616.417,403.333 630.667,390 644,376C657.667,361.667 670.083,346.583 681.25,330.75C692.417,314.917 702.083,298.083 710.25,280.25C718.417,262.417 724.75,243.5 729.25,223.5C733.75,203.5 736,182.333 736,160C736,135 732.25,111.417 724.75,89.25C717.25,67.0834 706.667,46.5 693,27.5ZM512,0C534,0 554.75,4.16669 574.25,12.5C593.75,20.8334 610.75,32.2501 625.25,46.75C639.75,61.2501 651.167,78.2501 659.5,97.75C667.833,117.25 672,138 672,160C672,194.667 665.333,225.917 652,253.75C638.667,281.583 620.5,307.667 597.5,332C574.167,357 547.333,380 517,401C486.667,422 454.667,442.833 421,463.5C404.667,473.5 388.167,483.667 371.5,494C354.833,504.333 338.5,514.75 322.5,525.25C306.5,535.75 290.917,546.5 275.75,557.5C260.583,568.5 246.5,579.833 233.5,591.5C209.5,612.833 189,636.75 172,663.25C155,689.75 144.667,719.333 141,752C136.333,745.333 131.833,738.5 127.5,731.5C123.167,724.5 119,717.667 115,711C99.6667,684 87.3333,656.417 78,628.25C68.6667,600.083 64,572 64,544L64,197C64,183.333 66.0833,170.083 70.25,157.25C74.4167,144.417 80.4167,132.75 88.25,122.25C96.0833,111.75 105.417,102.5 116.25,94.5C127.083,86.5 139.167,80.5 152.5,76.5C176.167,69.5 203.5,61.5834 234.5,52.75C265.5,43.9167 297.667,35.6667 331,28C347,24.0001 363.167,20.3334 379.5,17C395.833,13.6667 411.75,10.75 427.25,8.25C442.75,5.75 457.667,3.75 472,2.25C486.333,0.75 499.667,0 512,0Z" fill="#FFFFFF" fill-opacity="1">
  </path>
</svg>