<!-- Exported by Character Map UWP -->
<svg height="100%" viewBox="0 64 1024 897" width="100%" xmlns="http://www.w3.org/2000/svg" xmlns:xlink="http://www.w3.org/1999/xlink">
  <path d="M0,148.5C0,136.833 2.25,125.917 6.75,115.75C11.25,105.583 17.3333,96.6667 25,89C32.6667,81.3334 41.5833,75.2501 51.75,70.75C61.9167,66.2501 72.8333,64.0001 84.5,64L320,64C346.333,64.0001 372.083,67.1667 397.25,73.5C422.417,79.8334 446.417,89 469.25,101C492.083,113 513.167,127.583 532.5,144.75C551.833,161.917 569,181.333 584,203C598.333,199.333 612.833,196.583 627.5,194.75C642.167,192.917 657,192 672,192L934,192C946.333,192 958,194.333 969,199C980,203.667 989.583,210.083 997.75,218.25C1005.92,226.417 1012.33,236 1017,247C1021.67,258 1024,269.667 1024,282L1024,544C1024,576.333 1019.83,607.5 1011.5,637.5C1003.17,667.5 991.333,695.583 976,721.75C960.667,747.917 942.333,771.667 921,793C899.667,814.333 875.917,832.667 849.75,848C823.583,863.333 795.5,875.167 765.5,883.5C735.5,891.833 704.333,896 672,896C630.667,896 590.75,889.083 552.25,875.25C513.75,861.417 478.667,841.167 447,814.5L310,951.5C303.667,957.833 296,961 287,961C278.333,961 270.833,957.833 264.5,951.5C258.167,945.167 255,937.667 255,929C255,920 258.167,912.333 264.5,906L401.5,769C392.833,758.667 384.833,747.917 377.5,736.75C370.167,725.583 363.5,714 357.5,702C351.167,702.667 344.917,703.167 338.75,703.5C332.583,703.833 326.333,704 320,704C290.667,704 262.333,700.167 235,692.5C207.667,684.833 182.167,674.083 158.5,660.25C134.833,646.417 113.25,629.75 93.75,610.25C74.25,590.75 57.5833,569.167 43.75,545.5C29.9167,521.833 19.1667,496.333 11.5,469C3.83333,441.667 0,413.333 0,384ZM84.5,128C78.8333,128 74,130 70,134C66,138 64,142.833 64,148.5L64,384C64,419.333 70.6667,452.583 84,483.75C97.3333,514.917 115.583,542.083 138.75,565.25C161.917,588.417 189.083,606.667 220.25,620C251.417,633.333 284.667,640 320,640C322.333,640 324.5,640 326.5,640C328.5,640 330.667,639.833 333,639.5C328.333,623.833 325,608 323,592C321,576 320,560 320,544C320,510 324.833,476.5 334.5,443.5L201.5,310.5C195.167,304.167 192,296.667 192,288C192,279.333 195.167,271.833 201.5,265.5C207.833,259.167 215.333,256 224,256C232.667,256 240.167,259.167 246.5,265.5L361,379.5C378.667,345.833 401.25,315.833 428.75,289.5C456.25,263.167 487.167,242 521.5,226C509.5,210.667 495.917,196.917 480.75,184.75C465.583,172.583 449.333,162.333 432,154C414.667,145.667 396.583,139.25 377.75,134.75C358.917,130.25 339.667,128 320,128ZM492,769C517.667,789.333 545.833,804.917 576.5,815.75C607.167,826.583 639,832 672,832C711.667,832 749,824.417 784,809.25C819,794.083 849.5,773.5 875.5,747.5C901.5,721.5 922.083,691 937.25,656C952.417,621 960,583.667 960,544L960,282C960,275 957.417,268.917 952.25,263.75C947.083,258.583 941,256 934,256L672,256C632.333,256 595,263.583 560,278.75C525,293.917 494.5,314.5 468.5,340.5C442.5,366.5 421.917,397 406.75,432C391.583,467 384,504.333 384,544C384,577 389.417,608.833 400.25,639.5C411.083,670.167 426.667,698.333 447,724L649.5,521.5C655.833,515.167 663.333,512 672,512C680.667,512 688.167,515.167 694.5,521.5C700.833,527.833 704,535.333 704,544C704,552.667 700.833,560.167 694.5,566.5Z" fill="#FFFFFF" fill-opacity="1">
  </path>
</svg>