<!-- Exported by Character Map UWP -->
<svg height="100%" viewBox="64 1 896 959" width="100%" xmlns="http://www.w3.org/2000/svg" xmlns:xlink="http://www.w3.org/1999/xlink">
  <path d="M960,442.5L960,834.5C960,851.167 956.583,867.083 949.75,882.25C942.917,897.417 933.75,910.75 922.25,922.25C910.75,933.75 897.417,942.917 882.25,949.75C867.083,956.583 851.167,960 834.5,960L704,960C695,960 686.583,958.333 678.75,955C670.917,951.667 664.167,947.167 658.5,941.5C652.833,935.833 648.333,929.083 645,921.25C641.667,913.417 640,905 640,896L640,640C640,631.333 638.333,623.083 635,615.25C631.667,607.417 627.083,600.583 621.25,594.75C615.417,588.917 608.583,584.333 600.75,581C592.917,577.667 584.667,576 576,576L448,576C439,576 430.667,577.667 423,581C415.333,584.333 408.583,588.917 402.75,594.75C396.917,600.583 392.333,607.333 389,615C385.667,622.667 384,631 384,640L384,896C384,905 382.333,913.333 379,921C375.667,928.667 371.083,935.417 365.25,941.25C359.417,947.083 352.667,951.667 345,955C337.333,958.333 329,960 320,960L189.5,960C172.833,960 156.917,956.583 141.75,949.75C126.583,942.917 113.25,933.75 101.75,922.25C90.25,910.75 81.0833,897.417 74.25,882.25C67.4167,867.083 64,851.167 64,834.5L64,442.5C64,429.833 66.4167,417.583 71.25,405.75C76.0833,393.917 83,383.5 92,374.5L433,34C443.667,23.3334 455.75,15.1667 469.25,9.5C482.75,3.83337 497,1.00006 512,1C527,1.00006 541.25,3.83337 554.75,9.5C568.25,15.1667 580.333,23.3334 591,34L932,374.5C941,383.5 947.917,393.917 952.75,405.75C957.583,417.583 960,429.833 960,442.5Z" fill="#FFFFFF" fill-opacity="1">
  </path>
</svg>