<!-- Exported by Character Map UWP -->
<svg height="100%" viewBox="0 64 1024 896" width="100%" xmlns="http://www.w3.org/2000/svg" xmlns:xlink="http://www.w3.org/1999/xlink">
  <path d="M0,342.5C0,304.167 7.16667,268.167 21.5,234.5C35.8333,200.833 55.4167,171.333 80.25,146C105.083,120.667 134.25,100.667 167.75,86C201.25,71.3334 237.333,64.0001 276,64C313.667,64.0001 349.25,71.1667 382.75,85.5C416.25,99.8334 446.333,120.167 473,146.5C476.333,149.833 479.667,153.167 483,156.5L501.5,175.5C504.833,178.833 508.167,182.167 511.5,185.5C517.833,178.833 524.083,172.333 530.25,166C536.417,159.667 542.833,153.333 549.5,147C576.5,121 606.417,100.917 639.25,86.75C672.083,72.5834 707.333,65.5001 745,65.5C783.667,65.5001 820,72.9167 854,87.75C888,102.583 917.583,122.75 942.75,148.25C967.917,173.75 987.75,203.5 1002.25,237.5C1016.75,271.5 1024,307.833 1024,346.5C1024,383.167 1017.08,418.75 1003.25,453.25C989.417,487.75 969.5,518 943.5,544L544,947.5C535.667,955.833 525.5,960 513.5,960C501.833,960 491.833,955.833 483.5,947.5L81.5,541.5C55.5,515.167 35.4167,484.75 21.25,450.25C7.08333,415.75 0,379.833 0,342.5Z" fill="#FFFFFF" fill-opacity="1">
  </path>
</svg>