<!-- Exported by Character Map UWP -->
<svg height="100%" viewBox="0 192 1024 832" width="100%" xmlns="http://www.w3.org/2000/svg" xmlns:xlink="http://www.w3.org/1999/xlink">
  <path d="M32,256C23.3333,256 15.8333,252.833 9.5,246.5C3.16667,240.167 0,232.667 0,224C0,215.333 3.16667,207.833 9.5,201.5C15.8333,195.167 23.3333,192 32,192L992,192C1000.67,192 1008.17,195.167 1014.5,201.5C1020.83,207.833 1024,215.333 1024,224C1024,232.667 1020.83,240.167 1014.5,246.5C1008.17,252.833 1000.67,256 992,256ZM32,512C23.3333,512 15.8333,508.833 9.5,502.5C3.16667,496.167 0,488.667 0,480C0,471.333 3.16667,463.833 9.5,457.5C15.8333,451.167 23.3333,448 32,448L512,448C520.667,448 528.167,451.167 534.5,457.5C540.833,463.833 544,471.333 544,480C544,488.667 540.833,496.167 534.5,502.5C528.167,508.833 520.667,512 512,512ZM512,928C512,915 514.5,902.667 519.5,891C524.5,879.333 531.417,869.083 540.25,860.25C549.083,851.417 559.333,844.5 571,839.5C582.667,834.5 595,832 608,832C618.333,832 629,833.833 640,837.5L640,554C640,543.667 643.417,534.333 650.25,526C657.083,517.667 665.5,512.5 675.5,510.5L971.5,451.5C973.167,451.167 974.667,450.917 976,450.75C977.333,450.583 978.833,450.5 980.5,450.5C986.5,450.5 992.167,451.667 997.5,454C1002.83,456.333 1007.42,459.5 1011.25,463.5C1015.08,467.5 1018.17,472.167 1020.5,477.5C1022.83,482.833 1024,488.5 1024,494.5L1024,864C1024,877 1021.5,889.333 1016.5,901C1011.5,912.667 1004.58,922.917 995.75,931.75C986.917,940.583 976.667,947.5 965,952.5C953.333,957.5 941,960 928,960C915,960 902.667,957.5 891,952.5C879.333,947.5 869.083,940.583 860.25,931.75C851.417,922.917 844.5,912.667 839.5,901C834.5,889.333 832,877 832,864C832,851 834.5,838.667 839.5,827C844.5,815.333 851.417,805.083 860.25,796.25C869.083,787.417 879.333,780.5 891,775.5C902.667,770.5 915,768 928,768C938.333,768 949,769.833 960,773.5L960,615L704,666L704,928C704,941 701.5,953.333 696.5,965C691.5,976.667 684.583,986.917 675.75,995.75C666.917,1004.58 656.667,1011.5 645,1016.5C633.333,1021.5 621,1024 608,1024C595,1024 582.667,1021.5 571,1016.5C559.333,1011.5 549.083,1004.58 540.25,995.75C531.417,986.917 524.5,976.667 519.5,965C514.5,953.333 512,941 512,928ZM32,768C23.3333,768 15.8333,764.833 9.5,758.5C3.16667,752.167 0,744.667 0,736C0,727.333 3.16667,719.833 9.5,713.5C15.8333,707.167 23.3333,704 32,704L512,704C520.667,704 528.167,707.167 534.5,713.5C540.833,719.833 544,727.333 544,736C544,744.667 540.833,752.167 534.5,758.5C528.167,764.833 520.667,768 512,768Z" fill="#FFFFFF" fill-opacity="1">
  </path>
</svg>