<!-- Exported by Character Map UWP -->
<svg height="100%" viewBox="160 0 704 1024" width="100%" xmlns="http://www.w3.org/2000/svg" xmlns:xlink="http://www.w3.org/1999/xlink">
  <path d="M320,188C320,162 325.167,137.583 335.5,114.75C345.833,91.9167 359.833,72.0001 377.5,55C395.167,38.0001 415.583,24.5834 438.75,14.75C461.917,4.91669 486.333,0 512,0C537.667,0 562.083,4.91669 585.25,14.75C608.417,24.5834 628.833,38.0001 646.5,55C664.167,72.0001 678.167,91.9167 688.5,114.75C698.833,137.583 704,162 704,188L704,516C704,541 698.917,564.917 688.75,587.75C678.583,610.583 664.917,630.583 647.75,647.75C630.583,664.917 610.583,678.583 587.75,688.75C564.917,698.917 541,704 516,704C490,704 465.167,699.25 441.5,689.75C417.833,680.25 397,667.167 379,650.5C361,633.833 346.667,614 336,591C325.333,568 320,543 320,516ZM544,862.5L544,992C544,1000.67 540.833,1008.17 534.5,1014.5C528.167,1020.83 520.667,1024 512,1024C503.333,1024 495.833,1020.83 489.5,1014.5C483.167,1008.17 480,1000.67 480,992L480,862.5C434.667,858.167 392.5,846.083 353.5,826.25C314.5,806.417 280.667,780.833 252,749.5C223.333,718.167 200.833,682.167 184.5,641.5C168.167,600.833 160,557.667 160,512C160,503.333 163.167,495.833 169.5,489.5C175.833,483.167 183.333,480 192,480C200.667,480 208.167,483.167 214.5,489.5C220.833,495.833 224,503.333 224,512C224,537.333 227.25,562.25 233.75,586.75C240.25,611.25 249.833,634.5 262.5,656.5C275.5,678.833 291,698.833 309,716.5C327,734.167 346.75,749.167 368.25,761.5C389.75,773.833 412.667,783.333 437,790C461.333,796.667 486.333,800 512,800C538,800 563.083,796.667 587.25,790C611.417,783.333 634.25,773.833 655.75,761.5C677.25,749.167 696.917,734.167 714.75,716.5C732.583,698.833 748,678.833 761,656.5C787,612.167 800,564 800,512C800,503.333 803.167,495.833 809.5,489.5C815.833,483.167 823.333,480 832,480C840.667,480 848.167,483.167 854.5,489.5C860.833,495.833 864,503.333 864,512C864,542.333 860.25,571.667 852.75,600C845.25,628.333 834.75,655 821.25,680C807.75,705 791.333,728 772,749C752.667,770 731.167,788.5 707.5,804.5C683.833,820.5 658.167,833.5 630.5,843.5C602.833,853.5 574,859.833 544,862.5Z" fill="#FFFFFF" fill-opacity="1">
  </path>
</svg>