<!-- Exported by Character Map UWP -->
<svg height="100%" viewBox="163 208 700 580" width="100%" xmlns="http://www.w3.org/2000/svg" xmlns:xlink="http://www.w3.org/1999/xlink">
  <path d="M407.5,289.5C407.5,300.5 405.333,311 401,321C396.667,331 390.833,339.75 383.5,347.25C376.167,354.75 367.583,360.667 357.75,365C347.917,369.333 337.333,371.5 326,371.5C314.667,371.5 304.083,369.333 294.25,365C284.417,360.667 275.833,354.833 268.5,347.5C261.167,340.167 255.333,331.583 251,321.75C246.667,311.917 244.5,301.333 244.5,290C244.5,278.667 246.583,268 250.75,258C254.917,248 260.667,239.25 268,231.75C275.333,224.25 283.917,218.333 293.75,214C303.583,209.667 314.167,207.5 325.5,207.5C336.833,207.5 347.417,209.667 357.25,214C367.083,218.333 375.75,224.25 383.25,231.75C390.75,239.25 396.667,247.917 401,257.75C405.333,267.583 407.5,278.167 407.5,289.5ZM617.5,289.5C617.5,278.167 619.667,267.5 624,257.5C628.333,247.5 634.167,238.833 641.5,231.5C648.833,224.167 657.5,218.333 667.5,214C677.5,209.667 688.167,207.5 699.5,207.5C710.833,207.5 721.417,209.667 731.25,214C741.083,218.333 749.667,224.25 757,231.75C764.333,239.25 770.083,247.917 774.25,257.75C778.417,267.583 780.5,278.167 780.5,289.5C780.5,300.833 778.333,311.417 774,321.25C769.667,331.083 763.833,339.75 756.5,347.25C749.167,354.75 740.583,360.667 730.75,365C720.917,369.333 710.333,371.5 699,371.5C687.667,371.5 677.083,369.333 667.25,365C657.417,360.667 648.833,354.75 641.5,347.25C634.167,339.75 628.333,331.083 624,321.25C619.667,311.417 617.5,300.833 617.5,289.5ZM509.5,787.5C476.5,787.5 443.5,783.167 410.5,774.5C377.5,765.833 346,753.417 316,737.25C286,721.083 258.5,701.5 233.5,678.5C208.5,655.5 187.667,629.5 171,600.5C168.333,595.833 166.25,591.417 164.75,587.25C163.25,583.083 162.5,578.167 162.5,572.5C162.5,565.5 163.833,558.917 166.5,552.75C169.167,546.583 172.917,541.083 177.75,536.25C182.583,531.417 188.083,527.667 194.25,525C200.417,522.333 207,521 214,521C224,521 232.417,523.167 239.25,527.5C246.083,531.833 252.333,537.833 258,545.5C264.333,553.833 270.583,562 276.75,570C282.917,578 289.5,585.833 296.5,593.5C326.833,624.833 360.167,647.833 396.5,662.5C432.833,677.167 472.667,684.5 516,684.5C544,684.5 569.75,681.333 593.25,675C616.75,668.667 638.667,659.5 659,647.5C679.333,635.5 698.333,620.917 716,603.75C733.667,586.583 750.667,567.167 767,545.5C772.667,538.167 778.667,532.25 785,527.75C791.333,523.25 799.333,521 809,521C824.333,521 837.083,525.667 847.25,535C857.417,544.333 862.5,556.833 862.5,572.5C862.5,578.167 861.833,582.833 860.5,586.5C859.167,590.167 857.167,594.333 854.5,599C846.167,614 836.5,627.75 825.5,640.25C814.5,652.75 803,664.833 791,676.5C752.667,712.833 709.333,740.417 661,759.25C612.667,778.083 562.167,787.5 509.5,787.5Z" fill="#FFFFFF" fill-opacity="1">
  </path>
</svg>