<!-- Exported by Character Map UWP -->
<svg height="100%" viewBox="0 3 1024 1022" width="100%" xmlns="http://www.w3.org/2000/svg" xmlns:xlink="http://www.w3.org/1999/xlink">
  <path d="M576,160C576,150 578,142.083 582,136.25C586,130.417 591.167,125.667 597.5,122C603.833,118.333 610.917,115 618.75,112C626.583,109 634.5,105.25 642.5,100.75C650.5,96.2501 658.167,90.3334 665.5,83C672.833,75.6667 679,65.6667 684,53L693.5,29C697.167,20.3334 702.917,13.7501 710.75,9.25C718.583,4.75006 727,2.50006 736,2.5C745.333,2.50006 753.917,4.83337 761.75,9.5C769.583,14.1667 775.333,20.8334 779,29.5L788,53C792.667,65.3334 798.583,75.0834 805.75,82.25C812.917,89.4167 820.5,95.25 828.5,99.75C836.5,104.25 844.5,108.083 852.5,111.25C860.5,114.417 867.75,117.917 874.25,121.75C880.75,125.583 886,130.417 890,136.25C894,142.083 896,150 896,160C896,169.333 893.333,177.833 888,185.5C882.667,193.167 875.667,198.833 867,202.5L843,212C830.333,217 820.417,223.167 813.25,230.5C806.083,237.833 800.167,245.5 795.5,253.5C790.833,261.5 787.083,269.417 784.25,277.25C781.417,285.083 778.083,292.167 774.25,298.5C770.417,304.833 765.583,310 759.75,314C753.917,318 746,320 736,320C726.667,320 718.167,317.333 710.5,312C702.833,306.667 697.167,299.667 693.5,291C689.5,281.667 685.833,273 682.5,265C679.167,257 675.25,249.75 670.75,243.25C666.25,236.75 660.75,230.917 654.25,225.75C647.75,220.583 639.333,216 629,212C622.667,209.333 616.333,206.75 610,204.25C603.667,201.75 598,198.583 593,194.75C588,190.917 583.917,186.25 580.75,180.75C577.583,175.25 576,168.333 576,160ZM8,160C8,153.333 10.3333,147.667 15,143C19.6667,138.333 25.3333,136 32,136C37.3333,136 42.25,134.75 46.75,132.25C51.25,129.75 55.3333,126.667 59,123C64,118 67.3333,112.5 69,106.5C70.6667,100.5 72.25,94.9167 73.75,89.75C75.25,84.5834 77.4167,80.3334 80.25,77C83.0833,73.6667 88.3333,72 96,72C102.667,72 108.333,74.3334 113,79C117.667,83.6667 120,89.3334 120,96C120,101.333 121.25,106.25 123.75,110.75C126.25,115.25 129.333,119.333 133,123C138,128 143.5,131.333 149.5,133C155.5,134.667 161.083,136.25 166.25,137.75C171.417,139.25 175.667,141.417 179,144.25C182.333,147.083 184,152.333 184,160C184,166.667 181.667,172.333 177,177C172.333,181.667 166.667,184 160,184C154.667,184 149.75,185.25 145.25,187.75C140.75,190.25 136.667,193.333 133,197C128,202 124.667,207.5 123,213.5C121.333,219.5 119.75,225.083 118.25,230.25C116.75,235.417 114.583,239.667 111.75,243C108.917,246.333 103.667,248 96,248C89.6667,248 84.0833,245.583 79.25,240.75C74.4167,235.917 72,230.333 72,224C72,219.333 70.8333,214.583 68.5,209.75C66.1667,204.917 63.0833,200.583 59.25,196.75C55.4167,192.917 51.0833,189.833 46.25,187.5C41.4167,185.167 36.6667,184 32,184C25.6667,184 20.0833,181.583 15.25,176.75C10.4167,171.917 8,166.333 8,160ZM803,160C788.667,152.667 775.75,143.25 764.25,131.75C752.75,120.25 743.333,107.333 736,93C720,121.667 697.667,144 669,160C683.333,167.333 696.167,176.833 707.5,188.5C718.833,200.167 728.333,213 736,227C743.333,212.667 752.75,199.75 764.25,188.25C775.75,176.75 788.667,167.333 803,160ZM315.5,607C315.5,600 317.417,594 321.25,589C325.083,584 330,580.167 336,577.5C359.667,566.5 382.167,553.917 403.5,539.75C424.833,525.583 443.5,509.25 459.5,490.75C475.5,472.25 488.25,451.583 497.75,428.75C507.25,405.917 512,380.333 512,352C512,335.667 510.417,318.167 507.25,299.5C504.083,280.833 498.667,263.5 491,247.5C483.333,231.5 472.75,218.25 459.25,207.75C445.75,197.25 428.833,192 408.5,192C395.833,192 384.167,193.25 373.5,195.75C362.833,198.25 353.5,202.333 345.5,208C337.5,213.667 331.25,221.167 326.75,230.5C322.25,239.833 320,251.5 320,265.5C320,271.5 321,277.75 323,284.25C325,290.75 327.917,296.583 331.75,301.75C335.583,306.917 340.25,311.25 345.75,314.75C351.25,318.25 357.5,320 364.5,320C374.167,320 381.5,318.167 386.5,314.5C391.5,310.833 395.917,306.75 399.75,302.25C403.583,297.75 407.583,293.583 411.75,289.75C415.917,285.917 422,284 430,284C439,284 446.583,287.167 452.75,293.5C458.917,299.833 462,307.333 462,316C462,319.667 461.333,323.167 460,326.5C458.667,329.833 457,333 455,336C444.333,351.667 431.083,363.583 415.25,371.75C399.417,379.917 382,384 363,384C348,384 334,380.667 321,374C308,367.333 296.667,358.583 287,347.75C277.333,336.917 269.75,324.667 264.25,311C258.75,297.333 256,283.333 256,269C256,246 259.833,225.75 267.5,208.25C275.167,190.75 285.75,176 299.25,164C312.75,152 328.833,143 347.5,137C366.167,131 386.5,128 408.5,128C428.5,128 446.5,131 462.5,137C478.5,143 492.75,151.333 505.25,162C517.75,172.667 528.417,185.083 537.25,199.25C546.083,213.417 553.417,228.667 559.25,245C565.083,261.333 569.333,278.25 572,295.75C574.667,313.25 576,330.667 576,348C576,375.333 573,401.417 567,426.25C561,451.083 550,475 534,498C521.667,516 508,532.917 493,548.75C478,564.583 461.5,578.5 443.5,590.5C439.5,593.167 433.083,597.25 424.25,602.75C415.417,608.25 406.167,613.667 396.5,619C386.833,624.333 377.5,629 368.5,633C359.5,637 352.667,639 348,639C339,639 331.333,635.917 325,629.75C318.667,623.583 315.5,616 315.5,607ZM840,352C840,345.333 842.333,339.667 847,335C851.667,330.333 857.333,328 864,328C869.333,328 874.25,326.75 878.75,324.25C883.25,321.75 887.333,318.667 891,315C896,310 899.333,304.5 901,298.5C902.667,292.5 904.25,286.917 905.75,281.75C907.25,276.583 909.417,272.333 912.25,269C915.083,265.667 920.333,264 928,264C934.667,264 940.333,266.333 945,271C949.667,275.667 952,281.333 952,288C952,293.333 953.25,298.25 955.75,302.75C958.25,307.25 961.333,311.333 965,315C970,320 975.5,323.333 981.5,325C987.5,326.667 993.083,328.25 998.25,329.75C1003.42,331.25 1007.67,333.417 1011,336.25C1014.33,339.083 1016,344.333 1016,352C1016,358.667 1013.67,364.333 1009,369C1004.33,373.667 998.667,376 992,376C986.667,376 981.75,377.25 977.25,379.75C972.75,382.25 968.667,385.333 965,389C960,394 956.667,399.5 955,405.5C953.333,411.5 951.75,417.083 950.25,422.25C948.75,427.417 946.583,431.667 943.75,435C940.917,438.333 935.667,440 928,440C921.667,440 916.083,437.583 911.25,432.75C906.417,427.917 904,422.333 904,416C904,411.333 902.833,406.583 900.5,401.75C898.167,396.917 895.083,392.583 891.25,388.75C887.417,384.917 883.083,381.833 878.25,379.5C873.417,377.167 868.667,376 864,376C857.667,376 852.083,373.583 847.25,368.75C842.417,363.917 840,358.333 840,352ZM284.5,1024C262.833,1024 242.5,1019.67 223.5,1011C204.5,1002.33 187.917,990.667 173.75,976C159.583,961.333 148.417,944.333 140.25,925C132.083,905.667 128,885.333 128,864L128,557.5L54.5,630.5C48.1667,636.833 40.6667,640 32,640C23.3333,640 15.8333,636.833 9.5,630.5C3.16667,624.167 0,616.667 0,608C0,599.333 3.16667,591.833 9.5,585.5L137.5,457.5C143.833,451.167 151.333,448 160,448L411,448C386.667,475 358.167,496.333 325.5,512L192,512L192,864C192,877 194.5,889.333 199.5,901C204.5,912.667 211.417,922.917 220.25,931.75C229.083,940.583 239.333,947.5 251,952.5C262.667,957.5 275,960 288,960L736,960C749,960 761.333,957.5 773,952.5C784.667,947.5 794.917,940.583 803.75,931.75C812.583,922.917 819.5,912.667 824.5,901C829.5,889.333 832,877 832,864L832,512L599,512C604.667,502 609.75,491.583 614.25,480.75C618.75,469.917 622.667,459 626,448L864,448C872.667,448 880.167,451.167 886.5,457.5L1014.5,585.5C1020.83,591.833 1024,599.333 1024,608C1024,616.667 1020.83,624.167 1014.5,630.5C1008.17,636.833 1000.67,640 992,640C983.333,640 975.833,636.833 969.5,630.5L896,557.5L896,867.5C896,888.5 891.75,908.5 883.25,927.5C874.75,946.5 863.417,963.083 849.25,977.25C835.083,991.417 818.5,1002.75 799.5,1011.25C780.5,1019.75 760.5,1024 739.5,1024Z" fill="#FFFFFF" fill-opacity="1">
  </path>
</svg>