<!-- Exported by Character Map UWP -->
<svg height="100%" viewBox="1 25 1022 975" width="100%" xmlns="http://www.w3.org/2000/svg" xmlns:xlink="http://www.w3.org/1999/xlink">
  <path d="M184,967.5C184,965.167 184.167,963.333 184.5,962L238,649L10.5,427.5C7.5,424.5 5.16667,420.833 3.5,416.5C1.83333,412.167 1,407.833 1,403.5C1,395.833 3.75,389 9.25,383C14.75,377 21.1667,373.5 28.5,372.5L342.5,327L483.5,42C489.167,30.3334 498.667,24.5 512,24.5C525.333,24.5 534.833,30.3334 540.5,42L681.5,327L995.5,372.5C1002.83,373.5 1009.25,377 1014.75,383C1020.25,389 1023,395.833 1023,403.5C1023,407.833 1022.17,412.167 1020.5,416.5C1018.83,420.833 1016.5,424.5 1013.5,427.5L786,649L839.5,962C839.833,963.333 840,965.167 840,967.5C840,976.167 836.833,983.667 830.5,990C824.167,996.333 816.667,999.5 808,999.5C802.333,999.5 797.333,998.333 793,996L512,848L231,996C226.667,998.333 221.667,999.5 216,999.5C207.333,999.5 199.833,996.333 193.5,990C187.167,983.667 184,976.167 184,967.5ZM765.5,909C757.5,861.667 749.583,814.583 741.75,767.75C733.917,720.917 725.667,673.833 717,626.5L922.5,426.5L639,385.5C617.333,342.833 596.083,300.083 575.25,257.25C554.417,214.417 533.333,171.5 512,128.5L512,775.5Z" fill="#FFFFFF" fill-opacity="1">
  </path>
</svg>