<!-- Exported by Character Map UWP -->
<svg height="100%" viewBox="64 0 896 1024" width="100%" xmlns="http://www.w3.org/2000/svg" xmlns:xlink="http://www.w3.org/1999/xlink">
  <path d="M256,256L256,251C256,216.333 262.917,183.75 276.75,153.25C290.583,122.75 309.25,96.1667 332.75,73.5C356.25,50.8334 383.417,32.9167 414.25,19.75C445.083,6.58337 477.667,0 512,0C547.333,0 580.583,6.66669 611.75,20C642.917,33.3334 670.083,51.5834 693.25,74.75C716.417,97.9167 734.667,125.083 748,156.25C761.333,187.417 768,220.667 768,256C768,291.333 761.333,324.583 748,355.75C734.667,386.917 716.417,414.083 693.25,437.25C670.083,460.417 642.917,478.667 611.75,492C580.583,505.333 547.333,512 512,512C476.667,512 443.417,505.333 412.25,492C381.083,478.667 353.917,460.417 330.75,437.25C307.583,414.083 289.333,386.917 276,355.75C262.667,324.583 256,291.333 256,256ZM64,704C64,687 67.3333,670.75 74,655.25C80.6667,639.75 89.6667,626.167 101,614.5C112.333,602.833 125.583,593.5 140.75,586.5C155.917,579.5 172.167,576 189.5,576L832,576C849,576 865.25,579.333 880.75,586C896.25,592.667 909.833,601.667 921.5,613C933.167,624.333 942.5,637.583 949.5,652.75C956.5,667.917 960,684.167 960,701.5C960,742.5 953.667,779 941,811C928.333,843 911.167,870.917 889.5,894.75C867.833,918.583 842.417,938.75 813.25,955.25C784.083,971.75 752.917,985.083 719.75,995.25C686.583,1005.42 652.25,1012.75 616.75,1017.25C581.25,1021.75 546.333,1024 512,1024C479,1024 446.167,1022.25 413.5,1018.75C380.833,1015.25 348.667,1009 317,1000C281,989.667 247.583,975.833 216.75,958.5C185.917,941.167 159.167,920.25 136.5,895.75C113.833,871.25 96.0833,843.083 83.25,811.25C70.4167,779.417 64,743.667 64,704Z" fill="#FFFFFF" fill-opacity="1">
  </path>
</svg>