<!-- Exported by Character Map UWP -->
<svg height="100%" viewBox="64 64 960 960" width="100%" xmlns="http://www.w3.org/2000/svg" xmlns:xlink="http://www.w3.org/1999/xlink">
  <path d="M441,896C448,918.667 458,940 471,960L252,960C227,960 203.083,954.917 180.25,944.75C157.417,934.583 137.417,920.917 120.25,903.75C103.083,886.583 89.4167,866.583 79.25,843.75C69.0833,820.917 64,797 64,772L64,252C64,227 69.0833,203.083 79.25,180.25C89.4167,157.417 103.083,137.417 120.25,120.25C137.417,103.083 157.417,89.4167 180.25,79.25C203.083,69.0834 227,64.0001 252,64L772,64C797,64.0001 820.917,69.0834 843.75,79.25C866.583,89.4167 886.583,103.083 903.75,120.25C920.917,137.417 934.583,157.417 944.75,180.25C954.917,203.083 960,227 960,252L960,336.5C951.333,324.833 941.583,314 930.75,304C919.917,294 908.333,285 896,277L896,253.5C896,236.833 892.583,220.917 885.75,205.75C878.917,190.583 869.75,177.25 858.25,165.75C846.75,154.25 833.417,145.083 818.25,138.25C803.083,131.417 787.167,128 770.5,128L253.5,128C236.5,128 220.333,131.5 205,138.5C189.667,145.5 176.333,154.833 165,166.5C153.667,178.167 144.667,191.75 138,207.25C131.333,222.75 128,239 128,256L681.5,256C645.167,269.667 614.333,291 589,320L128,320L128,770.5C128,787.833 131.5,804.083 138.5,819.25C145.5,834.417 154.833,847.667 166.5,859C178.167,870.333 191.75,879.333 207.25,886C222.75,892.667 239,896 256,896ZM928,483.5C928,505.167 923.667,525.5 915,544.5C906.333,563.5 894.667,580.083 880,594.25C865.333,608.417 848.333,619.583 829,627.75C809.667,635.917 789.333,640 768,640C745.667,640 724.833,635.833 705.5,627.5C686.167,619.167 669.25,607.75 654.75,593.25C640.25,578.75 628.833,561.833 620.5,542.5C612.167,523.167 608,502.333 608,480C608,457.667 612.167,436.833 620.5,417.5C628.833,398.167 640.25,381.25 654.75,366.75C669.25,352.25 686.167,340.833 705.5,332.5C724.833,324.167 745.667,320 768,320C791,320 812.25,324.25 831.75,332.75C851.25,341.25 868.167,352.917 882.5,367.75C896.833,382.583 908,399.917 916,419.75C924,439.583 928,460.833 928,483.5ZM1024,832C1024,853.333 1020.25,872.917 1012.75,890.75C1005.25,908.583 995.083,924.583 982.25,938.75C969.417,952.917 954.5,965.333 937.5,976C920.5,986.667 902.5,995.583 883.5,1002.75C864.5,1009.92 845.083,1015.25 825.25,1018.75C805.417,1022.25 786.333,1024 768,1024C750.333,1024 731.75,1022.25 712.25,1018.75C692.75,1015.25 673.5,1010 654.5,1003C635.5,996 617.417,987.25 600.25,976.75C583.083,966.25 567.917,954 554.75,940C541.583,926 531.167,910.333 523.5,893C515.833,875.667 512,856.667 512,836L512,808C512,793.667 514.667,780.167 520,767.5C525.333,754.833 532.75,743.75 542.25,734.25C551.75,724.75 562.75,717.333 575.25,712C587.75,706.667 601.333,704 616,704L920,704C934.333,704 947.833,706.75 960.5,712.25C973.167,717.75 984.167,725.167 993.5,734.5C1002.83,743.833 1010.25,754.833 1015.75,767.5C1021.25,780.167 1024,793.667 1024,808Z" fill="#FFFFFF" fill-opacity="1">
  </path>
</svg>