<!-- Exported by Character Map UWP -->
<svg height="100%" viewBox="0 192 1024 704" width="100%" xmlns="http://www.w3.org/2000/svg" xmlns:xlink="http://www.w3.org/1999/xlink">
  <path d="M0,864C0,855.333 3.16667,847.833 9.5,841.5L361.5,489.5C367.833,483.167 375.333,480 384,480C392.667,480 400.167,483.167 406.5,489.5L544,626.5L914.5,256L608,256C599.333,256 591.833,252.833 585.5,246.5C579.167,240.167 576,232.667 576,224C576,215.333 579.167,207.833 585.5,201.5C591.833,195.167 599.333,192 608,192L992,192C1000.67,192 1008.17,195.167 1014.5,201.5C1020.83,207.833 1024,215.333 1024,224L1024,608C1024,616.667 1020.83,624.167 1014.5,630.5C1008.17,636.833 1000.67,640 992,640C983.333,640 975.833,636.833 969.5,630.5C963.167,624.167 960,616.667 960,608L960,301.5L566.5,694.5C560.167,700.833 552.667,704 544,704C535.333,704 527.833,700.833 521.5,694.5L384,557.5L54.5,886.5C48.1667,892.833 40.6667,896 32,896C23.3333,896 15.8333,892.833 9.5,886.5C3.16667,880.167 0,872.667 0,864Z" fill="#FFFFFF" fill-opacity="1">
  </path>
</svg>