<!-- Exported by Character Map UWP -->
<svg height="100%" viewBox="64 64 896 896" width="100%" xmlns="http://www.w3.org/2000/svg" xmlns:xlink="http://www.w3.org/1999/xlink">
  <path d="M252,960C227,960 203.083,954.917 180.25,944.75C157.417,934.583 137.417,920.917 120.25,903.75C103.083,886.583 89.4167,866.583 79.25,843.75C69.0833,820.917 64,797 64,772L64,252C64,227 69.0833,203.083 79.25,180.25C89.4167,157.417 103.083,137.417 120.25,120.25C137.417,103.083 157.417,89.4167 180.25,79.25C203.083,69.0834 227,64.0001 252,64L772,64C797,64.0001 820.917,69.0834 843.75,79.25C866.583,89.4167 886.583,103.083 903.75,120.25C920.917,137.417 934.583,157.417 944.75,180.25C954.917,203.083 960,227 960,252L960,772C960,797 954.917,820.917 944.75,843.75C934.583,866.583 920.917,886.583 903.75,903.75C886.583,920.917 866.583,934.583 843.75,944.75C820.917,954.917 797,960 772,960ZM770.5,896C787.167,896 803.083,892.583 818.25,885.75C833.417,878.917 846.75,869.75 858.25,858.25C869.75,846.75 878.917,833.417 885.75,818.25C892.583,803.083 896,787.167 896,770.5L896,253.5C896,236.833 892.583,220.917 885.75,205.75C878.917,190.583 869.75,177.25 858.25,165.75C846.75,154.25 833.417,145.083 818.25,138.25C803.083,131.417 787.167,128 770.5,128L253.5,128C236.833,128 220.917,131.417 205.75,138.25C190.583,145.083 177.25,154.25 165.75,165.75C154.25,177.25 145.083,190.583 138.25,205.75C131.417,220.917 128,236.833 128,253.5L128,770.5C128,787.167 131.417,803.083 138.25,818.25C145.083,833.417 154.25,846.75 165.75,858.25C177.25,869.75 190.583,878.917 205.75,885.75C220.917,892.583 236.833,896 253.5,896ZM573,768C566.667,768 560.917,765.583 555.75,760.75C550.583,755.917 547.167,750.667 545.5,745L444,390L382,555C379.667,561.333 375.75,566.417 370.25,570.25C364.75,574.083 358.667,576 352,576L224,576C215.333,576 207.833,572.833 201.5,566.5C195.167,560.167 192,552.667 192,544C192,535.333 195.167,527.833 201.5,521.5C207.833,515.167 215.333,512 224,512L330,512L418,276.5C420.333,270.5 424.167,265.583 429.5,261.75C434.833,257.917 440.833,256 447.5,256C454.5,256 461,258.167 467,262.5C473,266.833 477,272.333 479,279L584,648L643.5,529.5C646.167,524.167 650.167,519.917 655.5,516.75C660.833,513.583 666.333,512 672,512L800,512C808.667,512 816.167,515.167 822.5,521.5C828.833,527.833 832,535.333 832,544C832,552.667 828.833,560.167 822.5,566.5C816.167,572.833 808.667,576 800,576L692,576L604.5,750.5C601.167,756.833 596.75,761.333 591.25,764C585.75,766.667 579.667,768 573,768Z" fill="#FFFFFF" fill-opacity="1">
  </path>
</svg>