<!-- Exported by Character Map UWP -->
<svg height="100%" viewBox="0 128 1024 768" width="100%" xmlns="http://www.w3.org/2000/svg" xmlns:xlink="http://www.w3.org/1999/xlink">
  <path d="M898.5,128C915.167,128 931.083,131.417 946.25,138.25C961.417,145.083 974.75,154.25 986.25,165.75C997.75,177.25 1006.92,190.583 1013.75,205.75C1020.58,220.917 1024,236.833 1024,253.5L1024,770.5C1024,787.167 1020.58,803.083 1013.75,818.25C1006.92,833.417 997.75,846.75 986.25,858.25C974.75,869.75 961.417,878.917 946.25,885.75C931.083,892.583 915.167,896 898.5,896L125.5,896C108.833,896 92.9167,892.583 77.75,885.75C62.5833,878.917 49.25,869.75 37.75,858.25C26.25,846.75 17.0833,833.417 10.25,818.25C3.41667,803.083 0,787.167 0,770.5L0,519.5C0,502.5 3.25,486.083 9.75,470.25C16.25,454.417 25.5,440.667 37.5,429L301.5,165.5C313.5,153.5 327.25,144.25 342.75,137.75C358.25,131.25 374.667,128 392,128ZM960,256C960,247.333 958.333,239.083 955,231.25C951.667,223.417 947.083,216.583 941.25,210.75C935.417,204.917 928.583,200.333 920.75,197C912.917,193.667 904.667,192 896,192L388,192C386.667,192 385.333,192.167 384,192.5L384,386.5C384,403.833 380.5,420.083 373.5,435.25C366.5,450.417 357.167,463.667 345.5,475C333.833,486.333 320.25,495.333 304.75,502C289.25,508.667 273,512 256,512L64.5,512C64.1667,513.667 64,516.167 64,519.5L64,768C64,777 65.6667,785.417 69,793.25C72.3333,801.083 76.8333,807.833 82.5,813.5C88.1667,819.167 94.9167,823.667 102.75,827C110.583,830.333 119,832 128,832L896,832C905,832 913.333,830.333 921,827C928.667,823.667 935.417,819.083 941.25,813.25C947.083,807.417 951.667,800.667 955,793C958.333,785.333 960,777 960,768ZM320,237L109.5,448L256,448C265,448 273.333,446.333 281,443C288.667,439.667 295.417,435.083 301.25,429.25C307.083,423.417 311.667,416.667 315,409C318.333,401.333 320,393 320,384Z" fill="#FFFFFF" fill-opacity="1">
  </path>
</svg>