<!-- Exported by Character Map UWP -->
<svg height="100%" viewBox="64 64 832 832" width="100%" xmlns="http://www.w3.org/2000/svg" xmlns:xlink="http://www.w3.org/1999/xlink">
  <path d="M896,160L896,416C896,429.333 893.5,441.833 888.5,453.5C883.5,465.167 876.667,475.333 868,484C859.333,492.667 849.167,499.5 837.5,504.5C825.833,509.5 813.333,512 800,512L512,512L512,800C512,813.333 509.5,825.833 504.5,837.5C499.5,849.167 492.667,859.333 484,868C475.333,876.667 465.167,883.5 453.5,888.5C441.833,893.5 429.333,896 416,896L160,896C146.667,896 134.167,893.5 122.5,888.5C110.833,883.5 100.667,876.667 92,868C83.3333,859.333 76.5,849.167 71.5,837.5C66.5,825.833 64,813.333 64,800L64,160C64,146.667 66.5,134.167 71.5,122.5C76.5,110.833 83.3333,100.667 92,92C100.667,83.3334 110.833,76.5001 122.5,71.5C134.167,66.5001 146.667,64.0001 160,64L800,64C813.333,64.0001 825.833,66.5001 837.5,71.5C849.167,76.5001 859.333,83.3334 868,92C876.667,100.667 883.5,110.833 888.5,122.5C893.5,134.167 896,146.667 896,160ZM128,448L448,448L448,128L160,128C151.333,128 143.833,131.167 137.5,137.5C131.167,143.833 128,151.333 128,160ZM832,160C832,151.333 828.833,143.833 822.5,137.5C816.167,131.167 808.667,128 800,128L512,128L512,448L800,448C808.667,448 816.167,444.833 822.5,438.5C828.833,432.167 832,424.667 832,416ZM448,512L128,512L128,800C128,808.667 131.167,816.167 137.5,822.5C143.833,828.833 151.333,832 160,832L416,832C424.667,832 432.167,828.833 438.5,822.5C444.833,816.167 448,808.667 448,800Z" fill="#FFFFFF" fill-opacity="1">
  </path>
</svg>