<!-- Exported by Character Map UWP -->
<svg height="100%" viewBox="0 128 960 768" width="100%" xmlns="http://www.w3.org/2000/svg" xmlns:xlink="http://www.w3.org/1999/xlink">
  <path d="M256,864L256,160C256,151.333 259.167,143.833 265.5,137.5C271.833,131.167 279.333,128 288,128C296.667,128 304.167,131.167 310.5,137.5C316.833,143.833 320,151.333 320,160L320,864C320,872.667 316.833,880.167 310.5,886.5C304.167,892.833 296.667,896 288,896C279.333,896 271.833,892.833 265.5,886.5C259.167,880.167 256,872.667 256,864ZM384,672L384,288C384,279.333 387.167,271.833 393.5,265.5C399.833,259.167 407.333,256 416,256C424.667,256 432.167,259.167 438.5,265.5C444.833,271.833 448,279.333 448,288L448,672C448,680.667 444.833,688.167 438.5,694.5C432.167,700.833 424.667,704 416,704C407.333,704 399.833,700.833 393.5,694.5C387.167,688.167 384,680.667 384,672ZM128,608L128,352C128,343.333 131.167,335.833 137.5,329.5C143.833,323.167 151.333,320 160,320C168.667,320 176.167,323.167 182.5,329.5C188.833,335.833 192,343.333 192,352L192,608C192,616.667 188.833,624.167 182.5,630.5C176.167,636.833 168.667,640 160,640C151.333,640 143.833,636.833 137.5,630.5C131.167,624.167 128,616.667 128,608ZM512,544L512,416C512,407.333 515.167,399.833 521.5,393.5C527.833,387.167 535.333,384 544,384C552.667,384 560.167,387.167 566.5,393.5C572.833,399.833 576,407.333 576,416L576,544C576,552.667 572.833,560.167 566.5,566.5C560.167,572.833 552.667,576 544,576C535.333,576 527.833,572.833 521.5,566.5C515.167,560.167 512,552.667 512,544ZM0,480C0,471.333 3.16667,463.833 9.5,457.5C15.8333,451.167 23.3333,448 32,448C40.6667,448 48.1667,451.167 54.5,457.5C60.8333,463.833 64,471.333 64,480C64,488.667 60.8333,496.167 54.5,502.5C48.1667,508.833 40.6667,512 32,512C23.3333,512 15.8333,508.833 9.5,502.5C3.16667,496.167 0,488.667 0,480ZM640,480C640,471.333 643.167,463.833 649.5,457.5C655.833,451.167 663.333,448 672,448C680.667,448 688.167,451.167 694.5,457.5C700.833,463.833 704,471.333 704,480C704,488.667 700.833,496.167 694.5,502.5C688.167,508.833 680.667,512 672,512C663.333,512 655.833,508.833 649.5,502.5C643.167,496.167 640,488.667 640,480ZM768,480C768,471.333 771.167,463.833 777.5,457.5C783.833,451.167 791.333,448 800,448C808.667,448 816.167,451.167 822.5,457.5C828.833,463.833 832,471.333 832,480C832,488.667 828.833,496.167 822.5,502.5C816.167,508.833 808.667,512 800,512C791.333,512 783.833,508.833 777.5,502.5C771.167,496.167 768,488.667 768,480ZM896,480C896,471.333 899.167,463.833 905.5,457.5C911.833,451.167 919.333,448 928,448C936.667,448 944.167,451.167 950.5,457.5C956.833,463.833 960,471.333 960,480C960,488.667 956.833,496.167 950.5,502.5C944.167,508.833 936.667,512 928,512C919.333,512 911.833,508.833 905.5,502.5C899.167,496.167 896,488.667 896,480Z" fill="#FFFFFF" fill-opacity="1">
  </path>
</svg>