<!-- Exported by Character Map UWP -->
<svg height="100%" viewBox="0 128 1024 768" width="100%" xmlns="http://www.w3.org/2000/svg" xmlns:xlink="http://www.w3.org/1999/xlink">
  <path d="M128,704L128,445C109,441 91.5833,434 75.75,424C59.9167,414 46.4167,401.917 35.25,387.75C24.0833,373.583 15.4167,357.667 9.25,340C3.08333,322.333 0,303.833 0,284.5C0,262.833 4.33333,242.5 13,223.5C21.6667,204.5 33.3333,187.917 48,173.75C62.6667,159.583 79.6667,148.417 99,140.25C118.333,132.083 138.667,128 160,128C181.333,128 201.667,132.083 221,140.25C240.333,148.417 257.333,159.583 272,173.75C286.667,187.917 298.333,204.5 307,223.5C315.667,242.5 320,262.833 320,284.5C320,303.833 316.917,322.333 310.75,340C304.583,357.667 295.917,373.583 284.75,387.75C273.583,401.917 260.083,414 244.25,424C228.417,434 211,441 192,445L192,704L384,704L384,416C384,406 387.667,397.833 395,391.5L619,199.5C625,194.5 632,192 640,192C648,192 655,194.5 661,199.5L885,391.5C892.333,397.833 896,406 896,416L896,704L992,704C1000.67,704 1008.17,707.167 1014.5,713.5C1020.83,719.833 1024,727.333 1024,736C1024,744.667 1020.83,752.167 1014.5,758.5C1008.17,764.833 1000.67,768 992,768L32,768C23.3333,768 15.8333,764.833 9.5,758.5C3.16667,752.167 0,744.667 0,736C0,727.333 3.16667,719.833 9.5,713.5C15.8333,707.167 23.3333,704 32,704ZM160,384C173,384 185.333,381.5 197,376.5C208.667,371.5 218.917,364.583 227.75,355.75C236.583,346.917 243.5,336.667 248.5,325C253.5,313.333 256,301 256,288C256,275 253.5,262.667 248.5,251C243.5,239.333 236.583,229.083 227.75,220.25C218.917,211.417 208.667,204.5 197,199.5C185.333,194.5 173,192 160,192C147,192 134.667,194.5 123,199.5C111.333,204.5 101.083,211.417 92.25,220.25C83.4167,229.083 76.5,239.333 71.5,251C66.5,262.667 64,275 64,288C64,301 66.5,313.333 71.5,325C76.5,336.667 83.4167,346.917 92.25,355.75C101.083,364.583 111.333,371.5 123,376.5C134.667,381.5 147,384 160,384ZM640,266L448,430.5L448,704L832,704L832,430.5ZM992,832C1000.67,832 1008.17,835.167 1014.5,841.5C1020.83,847.833 1024,855.333 1024,864C1024,872.667 1020.83,880.167 1014.5,886.5C1008.17,892.833 1000.67,896 992,896L32,896C23.3333,896 15.8333,892.833 9.5,886.5C3.16667,880.167 0,872.667 0,864C0,855.333 3.16667,847.833 9.5,841.5C15.8333,835.167 23.3333,832 32,832Z" fill="#FFFFFF" fill-opacity="1">
  </path>
</svg>