<!-- Exported by Character Map UWP -->
<svg height="100%" viewBox="0 64 1024 896" width="100%" xmlns="http://www.w3.org/2000/svg" xmlns:xlink="http://www.w3.org/1999/xlink">
  <path d="M20,448C13.3333,431 8.33333,413.75 5,396.25C1.66667,378.75 0,361 0,343C0,304.667 7.16667,268.583 21.5,234.75C35.8333,200.917 55.4167,171.333 80.25,146C105.083,120.667 134.25,100.667 167.75,86C201.25,71.3334 237.333,64.0001 276,64C311.333,64.0001 345.583,70.5001 378.75,83.5C411.917,96.5001 441.167,115.333 466.5,140C470.5,143.667 474.333,147.5 478,151.5L500,174C504,177.667 507.833,181.5 511.5,185.5C519.167,177.833 526.667,170.167 534,162.5C541.333,154.833 548.833,147.333 556.5,140C581.833,115.667 610.75,97.0834 643.25,84.25C675.75,71.4167 709.667,65 745,65C783.667,65 820,72.5 854,87.5C888,102.5 917.583,122.75 942.75,148.25C967.917,173.75 987.75,203.667 1002.25,238C1016.75,272.333 1024,308.667 1024,347C1024,364.333 1022.5,381.5 1019.5,398.5C1016.5,415.5 1011.83,432 1005.5,448L935,448C951.667,416.333 960,382.5 960,346.5C960,316.833 954.417,288.833 943.25,262.5C932.083,236.167 916.75,213.167 897.25,193.5C877.75,173.833 855,158.25 829,146.75C803,135.25 775,129.5 745,129.5C716,129.5 688.833,134.75 663.5,145.25C638.167,155.75 615.333,171.333 595,192C588.667,198.667 582.417,205.167 576.25,211.5C570.083,217.833 563.667,224.167 557,230.5C544.333,243.167 529.167,249.5 511.5,249.5C493.833,249.5 478.667,243.167 466,230.5C462.667,227.167 459.333,223.833 456,220.5L437.5,201.5C434.167,198.167 430.833,194.833 427.5,191.5C407.5,171.167 384.417,155.5 358.25,144.5C332.083,133.5 304.667,128 276,128C246.333,128 218.583,133.667 192.75,145C166.917,156.333 144.5,171.75 125.5,191.25C106.5,210.75 91.5,233.5 80.5,259.5C69.5,285.5 64,313.167 64,342.5C64,361.167 66.3333,379.333 71,397C75.6667,414.667 82.3333,431.667 91,448ZM510.5,704C505.167,704 499.917,702.25 494.75,698.75C489.583,695.25 485.833,691.167 483.5,686.5L348,415.5L250.5,561.5C244.167,571.167 235.333,576 224,576L32,576C23.3333,576 15.8333,572.833 9.5,566.5C3.16667,560.167 0,552.667 0,544C0,535.333 3.16667,527.833 9.5,521.5C15.8333,515.167 23.3333,512 32,512L207,512L325.5,334C328.5,329.333 332.417,325.833 337.25,323.5C342.083,321.167 347.167,320 352.5,320C358.167,320 363.583,321.583 368.75,324.75C373.917,327.917 377.833,332.167 380.5,337.5L515,606.5L645,399C651.333,389 660.167,384 671.5,384C680.5,384 688.167,387.167 694.5,393.5L813.5,512L992,512C1000.67,512 1008.17,515.167 1014.5,521.5C1020.83,527.833 1024,535.333 1024,544C1024,552.667 1020.83,560.167 1014.5,566.5C1008.17,572.833 1000.67,576 992,576L800,576C791.333,576 783.833,572.833 777.5,566.5L678,467L539,689C532.667,699 523.167,704 510.5,704ZM179,640L269,640L513.5,887L758,640L848.5,640L544,947.5C535.667,955.833 525.5,960 513.5,960C501.833,960 491.833,955.833 483.5,947.5Z" fill="#FFFFFF" fill-opacity="1">
  </path>
</svg>