<!-- Exported by Character Map UWP -->
<svg height="100%" viewBox="0 0 1024 1024" width="100%" xmlns="http://www.w3.org/2000/svg" xmlns:xlink="http://www.w3.org/1999/xlink">
  <path d="M192,256L192,251C192,228.667 195.083,207 201.25,186C207.417,165 216.083,145.167 227.25,126.5C238.417,107.833 251.75,90.7501 267.25,75.25C282.75,59.7501 299.833,46.4167 318.5,35.25C337.167,24.0834 357,15.4167 378,9.25C399,3.08337 420.667,0 443,0L452,0C474.333,0 496.083,3.08337 517.25,9.25C538.417,15.4167 558.333,24.0834 577,35.25C595.667,46.4167 612.833,59.7501 628.5,75.25C644.167,90.7501 657.583,107.833 668.75,126.5C679.917,145.167 688.583,165.083 694.75,186.25C700.917,207.417 704,229.167 704,251.5L704,255.5C680.333,263.833 658.167,274.333 637.5,287C638.167,281.333 638.75,275.5 639.25,269.5C639.75,263.5 640,257.667 640,252C640,226 634.833,201.583 624.5,178.75C614.167,155.917 600.167,136 582.5,119C564.833,102 544.417,88.5834 521.25,78.75C498.083,68.9167 473.667,64.0001 448,64C421.333,64.0001 396.333,69.0001 373,79C349.667,89.0001 329.333,102.667 312,120C294.667,137.333 281,157.667 271,181C261,204.333 256,229.333 256,256C256,281.667 260.917,306.083 270.75,329.25C280.583,352.417 294,372.833 311,390.5C328,408.167 347.917,422.167 370.75,432.5C393.583,442.833 418,448 444,448C456.667,448 468.833,447.083 480.5,445.25C492.167,443.417 504,440.167 516,435.5C507,458.5 501,482.333 498,507C489,509 479.917,510.333 470.75,511C461.583,511.667 452.333,512 443,512C408.333,512 375.75,505.083 345.25,491.25C314.75,477.417 288.167,458.75 265.5,435.25C242.833,411.75 224.917,384.583 211.75,353.75C198.583,322.917 192,290.333 192,256ZM576,544L576,540C576,509.667 582.083,481.167 594.25,454.5C606.417,427.833 622.75,404.5 643.25,384.5C663.75,364.5 687.583,348.75 714.75,337.25C741.917,325.75 770.333,320 800,320C830.667,320 859.583,325.917 886.75,337.75C913.917,349.583 937.667,365.667 958,386C978.333,406.333 994.417,430.083 1006.25,457.25C1018.08,484.417 1024,513.333 1024,544C1024,574.667 1018.08,603.583 1006.25,630.75C994.417,657.917 978.333,681.667 958,702C937.667,722.333 913.917,738.417 886.75,750.25C859.583,762.083 830.667,768 800,768C769.333,768 740.417,762.083 713.25,750.25C686.083,738.417 662.333,722.333 642,702C621.667,681.667 605.583,657.917 593.75,630.75C581.917,603.583 576,574.667 576,544ZM0,704C0,686.333 3.33333,669.75 10,654.25C16.6667,638.75 25.8333,625.167 37.5,613.5C49.1667,601.833 62.75,592.667 78.25,586C93.75,579.333 110.333,576 128,576L497.5,576C500.167,598.333 504.833,619.667 511.5,640L128,640C119,640 110.583,641.667 102.75,645C94.9167,648.333 88.1667,652.833 82.5,658.5C76.8333,664.167 72.3333,670.917 69,678.75C65.6667,686.583 64,695 64,704C64,738.333 69.6667,768.417 81,794.25C92.3333,820.083 107.667,842.5 127,861.5C146.333,880.5 168.833,896.333 194.5,909C220.167,921.667 247.167,931.75 275.5,939.25C303.833,946.75 332.833,952.083 362.5,955.25C392.167,958.417 420.667,960 448,960C469.667,960 491.167,959.25 512.5,957.75C533.833,956.25 555,953.5 576,949.5L576,1014.5C555,1018.17 533.833,1020.67 512.5,1022C491.167,1023.33 469.667,1024 448,1024C419.333,1024 390.083,1022.67 360.25,1020C330.417,1017.33 301,1012.5 272,1005.5C243,998.5 214.917,989.167 187.75,977.5C160.583,965.833 135.5,951 112.5,933C75.5,904.333 47.5,870.667 28.5,832C9.5,793.333 0,750.667 0,704ZM672,1021.5C663,1021.5 655.417,1018.42 649.25,1012.25C643.083,1006.08 640,998.5 640,989.5L640,802.5C664,817.5 689.583,828.833 716.75,836.5C743.917,844.167 771.667,848 800,848C828.333,848 856.083,844.167 883.25,836.5C910.417,828.833 936,817.5 960,802.5L960,989.5C960,998.5 956.917,1006.08 950.75,1012.25C944.583,1018.42 937,1021.5 928,1021.5C920.333,1021.5 913.667,1019.17 908,1014.5L820,944C814,939.333 807.333,937 800,937C792.333,937 785.667,939.333 780,944L692,1014.5C686.333,1019.17 679.667,1021.5 672,1021.5Z" fill="#FFFFFF" fill-opacity="1">
  </path>
</svg>