<!-- Exported by Character Map UWP -->
<svg height="100%" viewBox="0 0 1024 1024" width="100%" xmlns="http://www.w3.org/2000/svg" xmlns:xlink="http://www.w3.org/1999/xlink">
  <path d="M1024,32C1024,34.3334 1023.67,37.1667 1023,40.5L927,392.5C925,399.833 921.25,405.583 915.75,409.75C910.25,413.917 903.667,416 896,416C887.333,416 879.833,412.833 873.5,406.5L768,301L448,621L448,773.5C448,786.167 445.5,798.5 440.5,810.5C435.5,822.5 428.667,832.833 420,841.5L246.5,1014.5C240.167,1020.83 232.667,1024 224,1024C215,1024 207.417,1020.92 201.25,1014.75C195.083,1008.58 192,1001 192,992L192,832L32,832C23.3333,832 15.8333,828.833 9.5,822.5C3.16667,816.167 0,808.667 0,800C0,791.333 3.16667,783.833 9.5,777.5L182.5,604C191.5,595 201.917,588.083 213.75,583.25C225.583,578.417 237.833,576 250.5,576L403,576L723,256L617.5,150.5C611.167,144.167 608,136.667 608,128C608,120.333 610.083,113.75 614.25,108.25C618.417,102.75 624.167,99.0001 631.5,97L983.5,1C986.833,0.333374 989.667,0 992,0C1000.67,0 1008.17,3.16669 1014.5,9.5C1020.83,15.8334 1024,23.3334 1024,32ZM701.5,144.5L879.5,322.5L946.5,77.5ZM384,640L250.5,640C241.833,640 234.333,643.167 228,649.5L109,768L224,768C232.667,768 240.167,771.167 246.5,777.5C252.833,783.833 256,791.333 256,800L256,914.5L374.5,796C380.833,789.667 384,782.167 384,773.5Z" fill="#FFFFFF" fill-opacity="1">
  </path>
</svg>